ply
format ascii 1.0
comment VCGLIB generated
element vertex 8
property float x
property float y
property float z
element face 24
property list uchar int vertex_indices
end_header
1.999999 0.2661779 2.815875 
1.999999 2.815875 -0.2661779 
-1.999999 2.815875 -0.2661779 
-1.999998 0.2661779 2.815875 
1.999999 -2.815874 0.2661772 
1.999998 -0.2661767 -2.815876 
-1.999999 -0.2661785 -2.815874 
-1.999999 -2.815875 0.2661779 
3 0 1 2 
3 7 6 5 
3 4 5 1 
3 5 6 2 
3 2 6 7 
3 4 0 3 
3 3 0 2 
3 4 7 5 
3 0 4 1 
3 1 5 2 
3 3 2 7 
3 7 4 3 
3 0 1 2 
3 7 6 5 
3 4 5 1 
3 5 6 2 
3 2 6 7 
3 4 0 3 
3 3 0 2 
3 4 7 5 
3 0 4 1 
3 1 5 2 
3 3 2 7 
3 7 4 3 
